<svg width="1123" height="245" viewBox="0 0 1123 245" fill="none" xmlns="http://www.w3.org/2000/svg">
<mask id="mask0_604_47" style="mask-type:luminance" maskUnits="userSpaceOnUse" x="0" y="0" width="1123" height="245">
<path d="M0 -4.26133e-06H1122.52V245H0V-4.26133e-06Z" fill="white"/>
</mask>
<g mask="url(#mask0_604_47)">
<path d="M612.348 177.648C615.462 179.583 617.73 183.787 617.73 189.592C617.73 197.937 613.496 202.927 606.512 202.927C599.526 202.927 595.293 197.937 595.293 189.652C595.293 184.452 597.228 180.884 599.497 178.767L601.613 181.731C599.497 183.605 598.468 186.085 598.468 189.623C598.468 195.579 601.19 199.237 606.512 199.237C611.833 199.237 614.556 195.519 614.556 189.44C614.556 185.721 613.588 182.697 611.168 181.156H608.749V189.985H605.634V177.648H612.348Z" fill="#C3996B"/>
<path d="M606.3 153.15C606.3 150.127 605.332 148.07 602.701 148.07C600.07 148.07 599.102 150.127 599.102 153.15V163.703H606.3V153.15ZM617.096 148.191L609.414 154.752V163.674H617.096V167.302H595.928V152.908C595.928 147.979 598.286 144.35 602.672 144.35C606.33 144.35 608.568 146.891 609.233 150.58L617.096 143.716V148.191Z" fill="#C3996B"/>
<path d="M606.512 112.868C601.372 112.868 598.498 116.557 598.498 122.303C598.498 128.048 601.372 131.767 606.512 131.767C611.652 131.767 614.525 128.079 614.525 122.303C614.525 116.557 611.652 112.868 606.512 112.868ZM606.512 135.456C599.526 135.456 595.293 130.437 595.293 122.303C595.293 114.168 599.526 109.148 606.512 109.148C613.497 109.148 617.73 114.168 617.73 122.303C617.73 130.437 613.497 135.456 606.512 135.456Z" fill="#C3996B"/>
<path d="M595.928 76.153H607.116C613.376 76.153 617.73 80.1744 617.73 87.6744C617.73 95.1437 613.376 99.165 607.116 99.165H595.928V95.5357H606.874C611.621 95.5357 614.494 92.7237 614.494 87.6744C614.494 82.5944 611.621 79.781 606.874 79.781H595.928V76.153Z" fill="#C3996B"/>
<path d="M602.882 45.5784C600.16 45.5784 599.102 47.6051 599.102 50.7184V61.0904H606.662V50.7184C606.662 47.6051 605.573 45.5784 602.882 45.5784ZM602.852 41.8584C607.297 41.8584 609.777 45.2757 609.777 50.4157V61.0904H617.094V64.7197H595.928V50.4157C595.928 45.2757 598.437 41.8584 602.852 41.8584Z" fill="#C3996B"/>
<path d="M407.87 140.153C407.87 142.499 405.559 144.175 401.36 144.175C398.468 144.175 395.911 143.328 393.988 141.671L395.311 140.171C396.987 141.671 398.962 142.34 401.45 142.34C404.2 142.34 405.718 141.617 405.718 140.329C405.718 139.06 404.166 138.724 401.062 138.46C397.656 138.177 394.447 137.42 394.447 134.897C394.447 132.445 397.287 131.087 400.831 131.087C403.512 131.087 405.788 131.881 407.27 133.133L405.93 134.58C404.659 133.468 402.912 132.939 400.867 132.921C398.91 132.904 396.582 133.38 396.582 134.756C396.582 136.061 398.644 136.291 401.343 136.503C405.188 136.803 407.87 137.579 407.87 140.153Z" fill="#C3996B"/>
<path d="M410.307 131.457H412.423V143.804H410.307V131.457Z" fill="#C3996B"/>
<path d="M429.533 131.458V143.805H427.663L418.015 134.069V143.805H415.969V131.458H418.227L427.47 140.823V131.458H429.533Z" fill="#C3996B"/>
<path d="M444.334 140.118L446.291 141.089C445.127 142.888 442.87 144.176 439.749 144.176C435.127 144.176 432.217 141.688 432.217 137.632C432.217 133.574 435.127 131.088 439.835 131.088C442.87 131.088 445.127 132.393 446.274 134.157L444.299 135.145C443.382 133.628 441.811 132.957 439.801 132.957C436.538 132.957 434.369 134.545 434.369 137.632C434.369 140.718 436.538 142.305 439.801 142.305C441.811 142.305 443.399 141.653 444.334 140.118Z" fill="#C3996B"/>
<path d="M460.9 141.953V143.805H448.605V131.458H460.724V133.31H450.705V136.609H459.136V138.461H450.705V141.953H460.9Z" fill="#C3996B"/>
<path d="M474.077 131.105C476.969 131.105 479.916 132.357 479.916 134.843C479.916 136.961 477.886 138.054 475.012 139.006C472.473 139.889 470.568 140.858 470.144 142.041H480.198V143.805H467.516V142.834C467.904 140.629 470.18 138.725 473.813 137.473C476.088 136.678 477.764 136.097 477.764 134.879C477.764 133.503 475.894 132.851 474.006 132.851C472.014 132.851 470.444 133.662 469.226 135.214L467.833 134.121C468.926 132.41 471.238 131.105 474.077 131.105Z" fill="#C3996B"/>
<path d="M494.488 137.631C494.488 134.544 492.495 132.956 489.32 132.956C486.128 132.956 484.152 134.544 484.152 137.631C484.152 140.717 486.128 142.305 489.32 142.305C492.495 142.305 494.488 140.717 494.488 137.631ZM482 137.631C482 133.573 484.733 131.087 489.32 131.087C493.924 131.087 496.64 133.573 496.64 137.631C496.64 141.688 493.924 144.175 489.32 144.175C484.733 144.175 482 141.688 482 137.631Z" fill="#C3996B"/>
<path d="M510.965 137.631C510.965 134.544 508.971 132.956 505.797 132.956C502.605 132.956 500.629 134.544 500.629 137.631C500.629 140.717 502.605 142.305 505.797 142.305C508.971 142.305 510.965 140.717 510.965 137.631ZM498.477 137.631C498.477 133.573 501.211 131.087 505.797 131.087C510.401 131.087 513.117 133.573 513.117 137.631C513.117 141.688 510.401 144.175 505.797 144.175C501.211 144.175 498.477 141.688 498.477 137.631Z" fill="#C3996B"/>
<path d="M521.304 142.411C523.403 142.411 525.325 141.759 525.325 140.205C525.325 138.636 523.437 138.213 520.897 138.213H519.188V136.555H520.897C523.015 136.555 524.92 136.008 524.92 134.703C524.92 133.397 522.979 132.851 521.216 132.851C518.852 132.851 517.335 133.663 516.453 134.915L514.813 133.909C516.083 132.163 518.181 131.104 521.109 131.104C524.284 131.104 527.089 132.287 527.089 134.509C527.089 136.096 525.625 137.172 524.073 137.331C525.643 137.543 527.565 138.372 527.565 140.364C527.565 142.781 524.779 144.157 521.304 144.157C518.164 144.157 515.836 142.975 514.496 141.176L516.26 140.205C517.159 141.599 518.993 142.411 521.304 142.411Z" fill="#C3996B"/>
<path d="M290.357 206.262V48.0604L298.759 38.0484V196.25L290.357 206.262Z" fill="#C3996B"/>
<path d="M515.899 70.2397C493.484 70.2397 473.645 81.2197 461.443 98.0904V53.4384H559.253L566.303 45.0384H453.041V116.444H460.971C469.427 94.3411 490.824 78.6411 515.899 78.6411C548.376 78.6411 574.704 104.968 574.704 137.445C574.704 169.922 548.376 196.25 515.899 196.25C490.824 196.25 469.427 180.549 460.971 158.446H452.059C460.88 185.274 486.119 204.65 515.899 204.65C553.015 204.65 583.104 174.562 583.104 137.445C583.104 100.329 553.015 70.2397 515.899 70.2397Z" fill="#C3996B"/>
<path d="M448.589 171.556H431.892V158.448H423.492V171.556H330.52L431.892 50.7449V37.6755L312.482 179.957H423.492V200.45H431.892V179.957H441.077L448.589 171.556Z" fill="#C3996B"/>
<path d="M648.021 229.346H650.542V16.143H648.021V229.346Z" fill="#C3996B"/>
<path d="M685.922 179.607L689.958 184.973L693.965 179.607H696.052L690.85 186.531V190.189H689.037V186.531L683.822 179.607H685.922Z" fill="#333E47"/>
<path d="M707.906 188.602V190.188H697.371V179.607H707.755V181.194H699.168V184.02H706.394V185.608H699.168V188.602H707.906Z" fill="#333E47"/>
<path d="M717.661 186.092L715.077 181.194L712.491 186.092H717.661ZM718.463 187.634H711.675L710.33 190.188H708.363L714.093 179.607H716.089L721.802 190.188H719.822L718.463 187.634Z" fill="#333E47"/>
<path d="M730.166 184.791C731.678 184.791 732.705 184.308 732.705 182.992C732.705 181.678 731.678 181.194 730.166 181.194H724.89V184.791H730.166ZM732.645 190.188L729.364 186.348H724.906V190.188H723.092V179.606H730.288C732.75 179.606 734.565 180.786 734.565 182.978C734.565 184.807 733.296 185.926 731.452 186.259L734.882 190.188H732.645Z" fill="#333E47"/>
<path d="M747.554 187.06C747.554 189.071 745.576 190.507 741.976 190.507C739.498 190.507 737.305 189.782 735.658 188.36L736.792 187.075C738.228 188.36 739.921 188.934 742.053 188.934C744.412 188.934 745.71 188.314 745.71 187.211C745.71 186.123 744.38 185.836 741.72 185.608C738.804 185.367 736.052 184.716 736.052 182.555C736.052 180.455 738.485 179.291 741.524 179.291C743.821 179.291 745.77 179.971 747.041 181.043L745.892 182.283C744.804 181.331 743.306 180.878 741.553 180.863C739.876 180.847 737.88 181.255 737.88 182.434C737.88 183.552 739.649 183.75 741.962 183.931C745.257 184.188 747.554 184.854 747.554 187.06Z" fill="#333E47"/>
<path d="M797.464 161.707L792.563 164.294L797.464 166.879V161.707ZM799.007 160.906V167.696L801.564 169.043V171.01L790.975 165.276V163.28L801.564 157.563V159.544L799.007 160.906Z" fill="#333E47"/>
<path d="M790.975 144.951H801.564V146.555L793.213 154.828H801.564V156.583H790.975V154.647L799.007 146.72H790.975V144.951Z" fill="#333E47"/>
<path d="M790.975 130.889H801.564V132.493L793.213 140.766H801.564V142.521H790.975V140.585L799.007 132.658H790.975V130.889Z" fill="#333E47"/>
<path d="M801.564 128.457H790.975V126.642H801.564V128.457Z" fill="#333E47"/>
<path d="M790.975 123.664L799.703 119.201L790.975 114.74V112.758L801.564 118.249V120.185L790.975 125.676V123.664Z" fill="#333E47"/>
<path d="M799.975 101.237H801.563V111.779H790.975V101.389H792.563V109.979H795.391V102.75H796.98V109.979H799.975V101.237Z" fill="#333E47"/>
<path d="M796.164 92.5434C796.164 91.0301 795.68 90.0021 794.363 90.0021C793.048 90.0021 792.563 91.0301 792.563 92.5434V97.8221H796.164V92.5434ZM801.564 90.0621L797.721 93.3447V97.8074H801.564V99.6221H790.975V92.4221C790.975 89.9567 792.156 88.1421 794.348 88.1421C796.179 88.1421 797.297 89.4127 797.631 91.2581L801.564 87.8247V90.0621Z" fill="#333E47"/>
<path d="M798.433 75.4544C800.445 75.4544 801.882 77.4357 801.882 81.0357C801.882 83.5171 801.156 85.7091 799.734 87.3584L798.449 86.2237C799.734 84.7864 800.309 83.0931 800.309 80.9597C800.309 78.6011 799.688 77.2997 798.585 77.2997C797.496 77.2997 797.208 78.6304 796.981 81.2931C796.738 84.2117 796.089 86.9651 793.926 86.9651C791.824 86.9651 790.658 84.5304 790.658 81.4891C790.658 79.1904 791.34 77.2397 792.413 75.9691L793.653 77.1184C792.7 78.2077 792.246 79.7051 792.232 81.4597C792.216 83.1384 792.625 85.1344 793.805 85.1344C794.924 85.1344 795.121 83.3651 795.302 81.0504C795.56 77.7531 796.225 75.4544 798.433 75.4544Z" fill="#333E47"/>
<path d="M797.464 66.4132L792.563 68.9998L797.464 71.5865V66.4132ZM799.007 65.6118V72.4025L801.564 73.7492V75.7158L790.975 69.9825V67.9865L801.564 62.2692V64.2505L799.007 65.6118Z" fill="#333E47"/>
<path d="M796.164 54.2104C796.164 52.6971 795.68 51.6691 794.363 51.6691C793.048 51.6691 792.563 52.6971 792.563 54.2104V59.4891H796.164V54.2104ZM801.564 51.7291L797.721 55.0117V59.4744H801.564V61.2891H790.975V54.0891C790.975 51.6237 792.156 49.8091 794.348 49.8091C796.179 49.8091 797.297 51.0797 797.631 52.9251L801.564 49.4917V51.7291Z" fill="#333E47"/>
<path d="M790.975 47.8163L796.345 43.7776L790.975 39.7696V37.6816L797.903 42.8856H801.564V44.7003H797.903L790.975 49.9189V47.8163Z" fill="#333E47"/>
<path d="M832.203 163.155H823.801C823.801 163.176 823.804 163.196 823.804 163.217C823.804 179.455 810.64 192.619 794.401 192.619C778.163 192.619 764.999 179.455 764.999 163.217V163.203C765 163.187 765 163.171 765 163.155L764.999 154.816H704.655L697.605 163.217H756.597C756.599 184.093 773.524 201.019 794.401 201.019C815.279 201.019 832.204 184.093 832.204 163.215C832.204 163.195 832.203 163.175 832.203 163.155Z" fill="#333E47"/>
<path d="M718.789 49.7438C735.028 49.7438 748.192 62.9078 748.192 79.1465C748.192 86.3905 745.566 93.0171 741.224 98.1425L719.042 124.592H730.004L747.665 103.534C753.23 96.9505 756.592 88.4438 756.592 79.1478C756.592 58.2705 739.668 41.3451 718.789 41.3451C697.91 41.3451 680.986 58.2705 680.986 79.1478C680.986 79.2065 680.989 79.2625 680.989 79.3211H689.392C689.392 79.2625 689.386 79.2051 689.386 79.1465C689.386 62.9078 702.55 49.7438 718.789 49.7438Z" fill="#333E47"/>
<path d="M675.654 163.217H686.634L719.044 124.593L712.606 119.19L675.654 163.217Z" fill="#C3996B"/>
<path d="M756.598 107.06C756.598 107.08 756.599 107.1 756.599 107.12H756.598V146.544L764.999 146.543V107.12C764.999 107.12 764.999 107.079 764.999 107.059C764.999 93.7399 773.856 82.4959 786 78.8799V70.2053C769.167 74.0266 756.598 89.0706 756.598 107.06Z" fill="#C3996B"/>
<path d="M807.002 71.4161V80.4895C816.935 85.2081 823.803 95.3295 823.803 107.057C823.803 107.079 823.802 107.099 823.802 107.12H832.202C832.203 107.1 832.205 107.08 832.205 107.06C832.205 90.6015 821.683 76.6068 807.002 71.4161Z" fill="#C3996B"/>
<path d="M815.402 163.217L823.804 163.215V107.121L815.402 114.169V163.217Z" fill="#C3996B"/>
</g>
</svg>
